# Blender v2.76 (sub 0) OBJ File: 'worm_muscular.blend'
# www.blender.org
mtllib CenterCylinder.mtl
o CenterCylinder_Cylinder.003
v -0.000000 0.025244 0.249123
v -0.013889 0.021031 -0.250877
v -0.017678 0.017922 0.249123
v -0.024520 0.005121 -0.250877
v -0.025000 0.000244 0.249123
v -0.020787 -0.013645 -0.250877
v -0.017678 -0.017434 0.249123
v -0.004877 -0.024276 -0.250877
v 0.000000 -0.024756 0.249123
v 0.004877 -0.024276 -0.250877
v 0.017678 -0.017434 0.249123
v 0.020787 -0.013645 -0.250877
v 0.025000 0.000244 0.249123
v 0.024520 0.005121 -0.250877
v 0.017678 0.017922 0.249123
v 0.013889 0.021031 -0.250877
vn -0.831500 0.555600 -0.002800
vn -0.923900 -0.382700 0.002800
vn -0.980800 -0.195100 -0.002800
vn 0.923900 -0.382700 0.002800
vn -0.382700 -0.923900 0.002800
vn -0.555600 -0.831500 -0.002800
vn 0.000000 -1.000000 -0.001000
vn 0.923900 0.382700 0.002800
vn 0.555600 -0.831500 -0.002800
vn 0.382700 0.923900 0.002800
vn 0.980800 -0.195100 -0.002800
vn 0.000000 0.000000 1.000000
vn 0.831500 0.555600 -0.002800
vn 0.000000 0.000000 -1.000000
vn -0.000000 1.000000 -0.008400
vn -0.923900 0.382700 0.002800
vn -0.382700 0.923900 0.002800
vn 0.382700 -0.923900 0.002800
usemtl None
s off
f 3//1 2//1 4//1
f 5//2 6//2 7//2
f 5//3 4//3 6//3
f 11//4 12//4 13//4
f 7//5 8//5 9//5
f 7//6 6//6 8//6
f 8//7 10//7 9//7
f 13//8 14//8 15//8
f 11//9 10//9 12//9
f 1//10 15//10 16//10
f 13//11 12//11 14//11
f 7//12 11//12 15//12
f 15//13 14//13 16//13
f 10//14 6//14 2//14
f 1//15 16//15 2//15
f 3//16 4//16 5//16
f 1//17 2//17 3//17
f 9//18 10//18 11//18
f 15//12 1//12 3//12
f 3//12 5//12 7//12
f 7//12 9//12 11//12
f 11//12 13//12 15//12
f 15//12 3//12 7//12
f 2//14 16//14 14//14
f 14//14 12//14 10//14
f 10//14 8//14 6//14
f 6//14 4//14 2//14
f 2//14 14//14 10//14
