# Blender v2.76 (sub 0) OBJ File: 'worm_muscular.blend'
# www.blender.org
mtllib Muscle.mtl
o Muscle_Cylinder.016
v -0.000035 0.024976 0.499518
v -0.000035 0.024976 -0.500482
v 0.004822 0.024498 0.499518
v 0.004822 0.024498 -0.500482
v 0.009493 0.023081 0.499518
v 0.009493 0.023081 -0.500482
v 0.013798 0.020780 0.499518
v 0.013798 0.020780 -0.500482
v 0.017571 0.017683 0.499518
v 0.017571 0.017683 -0.500482
v 0.020668 0.013910 0.499518
v 0.020668 0.013910 -0.500482
v 0.022969 0.009605 0.499518
v 0.022969 0.009605 -0.500482
v 0.024386 0.004934 0.499518
v 0.024386 0.004934 -0.500482
v 0.024864 0.000076 0.499518
v 0.024864 0.000076 -0.500482
v 0.024386 -0.004782 0.499518
v 0.024386 -0.004781 -0.500482
v 0.022969 -0.009453 0.499518
v 0.022969 -0.009453 -0.500482
v 0.020668 -0.013758 0.499518
v 0.020668 -0.013757 -0.500482
v 0.017571 -0.017531 0.499518
v 0.017571 -0.017531 -0.500482
v 0.013798 -0.020627 0.499518
v 0.013798 -0.020627 -0.500482
v 0.009493 -0.022928 0.499518
v 0.009493 -0.022928 -0.500482
v 0.004822 -0.024345 0.499518
v 0.004822 -0.024345 -0.500482
v -0.000035 -0.024824 0.499518
v -0.000035 -0.024824 -0.500482
v -0.004893 -0.024345 0.499518
v -0.004893 -0.024345 -0.500482
v -0.009564 -0.022928 0.499518
v -0.009564 -0.022928 -0.500482
v -0.013869 -0.020627 0.499518
v -0.013869 -0.020627 -0.500482
v -0.017642 -0.017531 0.499518
v -0.017642 -0.017531 -0.500482
v -0.020739 -0.013758 0.499518
v -0.020739 -0.013757 -0.500482
v -0.023040 -0.009453 0.499518
v -0.023040 -0.009453 -0.500482
v -0.024457 -0.004782 0.499518
v -0.024457 -0.004781 -0.500482
v -0.024935 0.000076 0.499518
v -0.024935 0.000076 -0.500482
v -0.024457 0.004934 0.499518
v -0.024457 0.004934 -0.500482
v -0.023040 0.009605 0.499518
v -0.023040 0.009605 -0.500482
v -0.020739 0.013910 0.499518
v -0.020739 0.013910 -0.500482
v -0.017642 0.017683 0.499518
v -0.017642 0.017683 -0.500482
v -0.013869 0.020780 0.499518
v -0.013869 0.020780 -0.500482
v -0.009564 0.023081 0.499518
v -0.009564 0.023081 -0.500482
v -0.004893 0.024498 0.499518
v -0.004893 0.024498 -0.500482
v 0.000855 0.050229 -0.316134
v 0.009680 0.048919 0.312018
v 0.022102 0.044861 0.313225
v 0.028668 0.041214 -0.313961
v 0.040407 0.029865 0.312810
v 0.044749 0.022214 -0.314189
v 0.049494 0.006586 0.313370
v 0.049813 0.003354 -0.314334
v 0.048207 -0.012899 0.313224
v 0.047176 -0.016229 -0.313481
v 0.038129 -0.032252 0.311521
v 0.027631 -0.041331 0.312018
v 0.016012 -0.047232 0.313370
v 0.012905 -0.048175 -0.314334
v -0.003349 -0.049771 0.313225
v -0.006817 -0.049410 -0.313481
v -0.021943 -0.044813 0.312228
v -0.028925 -0.040931 -0.314906
v -0.035249 -0.035138 0.312020
v -0.043190 -0.025076 0.312229
v -0.044924 -0.021832 -0.313194
v -0.049521 -0.006705 0.312516
v -0.050187 0.000967 -0.316134
v -0.048878 0.009792 0.312018
v -0.044820 0.022214 0.313225
v -0.041042 0.028966 -0.314906
v -0.029824 0.040519 0.312811
v -0.021943 0.044966 -0.313193
v -0.006545 0.049607 0.313370
v 0.041371 -0.027591 -0.312982
v 0.031150 -0.039028 -0.312471
vn 0.314700 0.941100 -0.123800
vn 0.766700 0.629200 -0.127200
vn 0.949200 0.287900 -0.127200
vn 0.982100 -0.137800 -0.128100
vn 0.880500 -0.455600 -0.130800
vn 0.736500 -0.664000 -0.129100
vn 0.628800 -0.766100 -0.133000
vn 0.467600 -0.874800 -0.127200
vn 0.287700 -0.948300 -0.133900
vn 0.056400 -0.990100 -0.128100
vn -0.097200 -0.986300 -0.133200
vn -0.348100 -0.928900 -0.126400
vn -0.628600 -0.765900 -0.134800
vn -0.766000 -0.630400 -0.126100
vn -0.874100 -0.467200 -0.133000
vn -0.949600 -0.288100 -0.123600
vn -0.986000 0.097100 -0.135500
vn -0.941600 0.313000 -0.124000
vn -0.874000 0.467200 -0.133500
vn -0.630400 0.766000 -0.126100
vn -0.467200 0.874100 -0.133000
vn 0.000000 0.000000 -1.000000
vn -0.097100 0.986100 -0.134600
vn -0.288100 0.949600 -0.123600
vn -0.000000 0.000000 1.000000
vn 0.890500 -0.454900 0.001200
vn -0.225200 0.974300 -0.001700
vn -0.642000 0.766700 -0.002600
vn -0.950500 0.310600 -0.002400
vn -0.974300 -0.225200 -0.001700
vn -0.766600 -0.642100 -0.001200
vn -0.358000 -0.933700 -0.001800
vn 0.062400 -0.998000 -0.000900
vn 0.448200 -0.893900 -0.000900
vn 0.745600 -0.666400 -0.001100
vn 0.991100 -0.133500 -0.000900
vn 0.965800 0.259300 -0.000800
vn 0.763300 0.646000 -0.002600
vn 0.308500 0.951200 -0.002300
vn 0.052800 0.990100 0.130300
vn 0.296400 0.946100 0.130700
vn 0.630300 0.765900 0.127100
vn 0.766000 0.628600 0.134700
vn 0.948800 0.287800 0.130500
vn 0.989400 -0.066300 0.129400
vn 0.875100 -0.466900 0.127200
vn 0.628900 -0.766300 0.131000
vn 0.467400 -0.874400 0.130500
vn 0.287700 -0.948300 0.133900
vn 0.128000 -0.983300 0.129400
vn -0.097100 -0.986200 0.133800
vn -0.261900 -0.956400 0.129100
vn -0.628900 -0.766300 0.131000
vn -0.777000 -0.615900 0.130400
vn -0.874100 -0.467200 0.133000
vn -0.948800 -0.287800 0.130100
vn -0.986600 0.097200 0.131000
vn -0.946100 0.296400 0.130700
vn -0.874000 0.467200 0.133800
vn -0.765900 0.630300 0.127100
vn -0.467200 0.874200 0.132300
vn -0.097100 0.986200 0.133900
vn -0.287800 0.948800 0.130500
vn 0.097100 0.986000 -0.135500
vn 0.288000 0.949300 -0.126300
vn 0.467200 0.874100 -0.133000
vn 0.628700 0.766000 -0.134000
vn 0.756500 0.641800 -0.126000
vn 0.874000 0.467200 -0.133800
vn 0.957400 0.258100 -0.129400
vn 0.986200 0.097100 -0.133900
vn 0.986700 -0.097200 -0.130500
vn 0.948400 -0.287700 -0.133200
vn 0.874400 -0.467400 -0.130100
vn 0.766400 -0.628900 -0.131000
vn 0.454900 -0.881300 -0.128200
vn 0.097200 -0.986700 -0.130500
vn -0.287800 -0.948800 -0.130100
vn -0.467200 -0.874000 -0.133500
vn -0.766900 -0.629300 -0.126000
vn -0.962600 -0.238800 -0.128300
vn -0.986100 -0.097100 -0.134600
vn -0.949300 0.288000 -0.126300
vn -0.766000 0.628600 -0.134800
vn -0.629300 0.766800 -0.126000
vn -0.238800 0.962600 -0.128300
vn -0.363700 0.931500 0.002000
vn -0.773500 0.633700 0.002200
vn -0.999200 0.039000 0.001500
vn -0.945400 -0.325800 0.000900
vn -0.588100 -0.808800 0.001500
vn -0.257700 -0.966200 0.000900
vn 0.130000 -0.991500 0.000800
vn 0.886900 -0.462000 0.001000
vn 0.997800 -0.065900 0.000800
vn 0.931500 0.363700 0.002000
vn 0.633700 0.773500 0.002100
vn 0.042400 0.999100 0.001500
vn -0.950500 0.310800 -0.002400
vn -0.785000 -0.619500 -0.002200
vn 0.452800 -0.891600 -0.000700
vn 0.654200 -0.756300 0.000900
vn 0.310800 0.950500 -0.002400
vn 0.097200 0.987100 0.127200
vn 0.287800 0.948700 0.131000
vn 0.467200 0.874000 0.133800
vn 0.629200 0.766700 0.127200
vn 0.874200 0.467200 0.132300
vn 0.923100 0.363400 0.125600
vn 0.986200 0.097100 0.133900
vn 0.987100 -0.097200 0.127200
vn 0.948300 -0.287700 0.133800
vn 0.874800 -0.467600 0.127200
vn 0.766100 -0.628800 0.133000
vn 0.652100 -0.746900 0.129800
vn 0.461000 -0.877700 0.130900
vn 0.097200 -0.987100 0.127200
vn -0.287900 -0.949200 0.127200
vn -0.467200 -0.874100 0.133000
vn -0.584500 -0.801100 0.128600
vn -0.766300 -0.628900 0.131000
vn -0.937000 -0.324900 0.127900
vn -0.986300 -0.097100 0.133200
vn -0.990800 0.042500 0.128700
vn -0.948700 0.287800 0.131000
vn -0.766700 0.629200 0.127200
vn -0.628600 0.766000 0.134700
vn -0.363400 0.923100 0.125700
vn -0.000100 0.000000 -1.000000
vn 0.000100 0.000000 -1.000000
usemtl None
s off
f 65//1 68//1 6//1
f 70//2 12//2 10//2
f 72//3 16//3 14//3
f 72//4 74//4 20//4
f 74//5 94//5 24//5
f 94//6 95//6 26//6
f 95//7 28//7 26//7
f 78//8 30//8 28//8
f 78//9 32//9 30//9
f 78//10 80//10 34//10
f 80//11 36//11 34//11
f 80//12 82//12 38//12
f 82//13 42//13 40//13
f 82//14 85//14 44//14
f 85//15 46//15 44//15
f 87//16 48//16 46//16
f 87//17 52//17 50//17
f 87//18 90//18 54//18
f 90//19 56//19 54//19
f 90//20 92//20 60//20
f 92//21 62//21 60//21
f 34//22 50//22 18//22
f 65//23 2//23 64//23
f 65//24 64//24 62//24
f 35//25 19//25 51//25
f 75//26 94//26 74//26
f 93//27 65//27 92//27
f 91//28 92//28 90//28
f 89//29 90//29 87//29
f 86//30 87//30 85//30
f 84//31 85//31 82//31
f 81//32 82//32 80//32
f 79//33 80//33 78//33
f 77//34 78//34 95//34
f 75//35 95//35 94//35
f 73//36 74//36 72//36
f 71//37 72//37 70//37
f 69//38 70//38 68//38
f 67//39 68//39 65//39
f 3//40 66//40 93//40
f 5//41 67//41 66//41
f 9//42 69//42 67//42
f 9//43 11//43 69//43
f 13//44 15//44 71//44
f 19//45 73//45 71//45
f 23//46 75//46 73//46
f 25//47 27//47 76//47
f 27//48 29//48 77//48
f 29//49 31//49 77//49
f 33//50 79//50 77//50
f 33//51 35//51 79//51
f 37//52 81//52 79//52
f 39//53 41//53 83//53
f 43//54 84//54 83//54
f 43//55 45//55 84//55
f 45//56 47//56 86//56
f 49//57 51//57 88//57
f 53//58 89//58 88//58
f 53//59 55//59 89//59
f 57//60 91//60 89//60
f 59//61 61//61 91//61
f 63//62 1//62 93//62
f 61//63 63//63 93//63
f 2//64 65//64 4//64
f 4//65 65//65 6//65
f 6//66 68//66 8//66
f 8//67 68//67 10//67
f 68//68 70//68 10//68
f 12//69 70//69 14//69
f 70//70 72//70 14//70
f 16//71 72//71 18//71
f 18//72 72//72 20//72
f 20//73 74//73 22//73
f 22//74 74//74 24//74
f 24//75 94//75 26//75
f 95//76 78//76 28//76
f 32//77 78//77 34//77
f 36//78 80//78 38//78
f 38//79 82//79 40//79
f 42//80 82//80 44//80
f 85//81 87//81 46//81
f 48//82 87//82 50//82
f 52//83 87//83 54//83
f 56//84 90//84 58//84
f 58//85 90//85 60//85
f 92//86 65//86 62//86
f 91//87 93//87 92//87
f 89//88 91//88 90//88
f 86//89 88//89 87//89
f 84//90 86//90 85//90
f 81//91 83//91 82//91
f 79//92 81//92 80//92
f 77//93 79//93 78//93
f 73//94 75//94 74//94
f 71//95 73//95 72//95
f 69//96 71//96 70//96
f 67//97 69//97 68//97
f 93//98 66//98 65//98
f 88//99 89//99 87//99
f 83//100 84//100 82//100
f 76//101 77//101 95//101
f 75//102 76//102 95//102
f 66//103 67//103 65//103
f 1//104 3//104 93//104
f 3//105 5//105 66//105
f 5//106 7//106 67//106
f 7//107 9//107 67//107
f 11//108 13//108 69//108
f 69//109 13//109 71//109
f 15//110 17//110 71//110
f 17//111 19//111 71//111
f 19//112 21//112 73//112
f 21//113 23//113 73//113
f 23//114 25//114 75//114
f 75//115 25//115 76//115
f 76//116 27//116 77//116
f 31//117 33//117 77//117
f 35//118 37//118 79//118
f 37//119 39//119 81//119
f 81//120 39//120 83//120
f 41//121 43//121 83//121
f 84//122 45//122 86//122
f 47//123 49//123 86//123
f 86//124 49//124 88//124
f 51//125 53//125 88//125
f 55//126 57//126 89//126
f 57//127 59//127 91//127
f 91//128 61//128 93//128
f 2//22 4//22 6//22
f 6//22 8//22 2//22
f 10//22 12//22 14//22
f 14//129 16//129 18//129
f 18//129 20//129 22//129
f 22//129 24//129 26//129
f 26//22 28//22 30//22
f 30//22 32//22 26//22
f 34//22 36//22 42//22
f 38//22 40//22 42//22
f 42//22 44//22 46//22
f 46//130 48//130 50//130
f 50//130 52//130 54//130
f 54//130 56//130 58//130
f 58//22 60//22 62//22
f 62//22 64//22 58//22
f 2//22 8//22 10//22
f 10//22 14//22 2//22
f 18//22 22//22 34//22
f 26//22 32//22 34//22
f 36//22 38//22 42//22
f 42//22 46//22 34//22
f 50//22 54//22 2//22
f 58//22 64//22 2//22
f 2//22 14//22 18//22
f 22//22 26//22 34//22
f 34//22 46//22 50//22
f 54//22 58//22 2//22
f 2//22 18//22 50//22
f 3//25 1//25 63//25
f 63//25 61//25 3//25
f 59//25 57//25 55//25
f 55//25 53//25 51//25
f 51//25 49//25 47//25
f 47//25 45//25 43//25
f 43//25 41//25 35//25
f 39//25 37//25 35//25
f 35//25 33//25 31//25
f 31//25 29//25 27//25
f 27//25 25//25 23//25
f 23//25 21//25 19//25
f 19//25 17//25 15//25
f 15//25 13//25 11//25
f 11//25 9//25 7//25
f 7//25 5//25 3//25
f 3//25 61//25 59//25
f 59//25 55//25 3//25
f 51//25 47//25 35//25
f 41//25 39//25 35//25
f 35//25 31//25 27//25
f 27//25 23//25 35//25
f 19//25 15//25 3//25
f 11//25 7//25 3//25
f 3//25 55//25 51//25
f 47//25 43//25 35//25
f 35//25 23//25 19//25
f 15//25 11//25 3//25
f 3//25 51//25 19//25
